PathFileType  4	(X/Y/Z) C:\Users\antoi\Documents\MyRepositories\mobilecap\ResultsAnalysis
DataRate	CameraRate	NumFrames	NumMarkers	Units	OrigDataRate	OrigDataStartFrame	OrigNumFrames
100.0	100.0	4	51	mm	100.0	78	311
Frame#	Time	r_knee			r_shank_antsup			r_ankle			r_calc			r_5meta			r_toe			L_knee			L_shank_antsup			L_ankle			L_calc			L_5meta			L_toe			r_sh2			r_sh3			r_sh4			L_sh2			L_sh3			r_thigh1			r_thigh2			r_thigh3			r_thigh4			r_thigh5			L_thigh1			L_thigh2			L_thigh3			L_thigh4			r.ASIS			r.PSIS			L.ASIS			L.PSIS			C7			R_Shoulder			L_Shoulder			R_Sternum			L_Sternum			R_humerus			R_elbow_med			R_elbow_lat			R_forearm			R_wrist_radius			R_wrist_ulna			L_humerus			L_elbow_med			L_elbow_lat			L_forearm			L_wrist_radius			L_wrist_ulna			R_HJC			L_HJC			R_HJC_reg			L_HJC_reg			
		X1	Y1	Z1	X2	Y2	Z2	X3	Y3	Z3	X4	Y4	Z4	X5	Y5	Z5	X6	Y6	Z6	X7	Y7	Z7	X8	Y8	Z8	X9	Y9	Z9	X10	Y10	Z10	X11	Y11	Z11	X12	Y12	Z12	X13	Y13	Z13	X14	Y14	Z14	X15	Y15	Z15	X16	Y16	Z16	X17	Y17	Z17	X18	Y18	Z18	X19	Y19	Z19	X20	Y20	Z20	X21	Y21	Z21	X22	Y22	Z22	X23	Y23	Z23	X24	Y24	Z24	X25	Y25	Z25	X26	Y26	Z26	X27	Y27	Z27	X28	Y28	Z28	X29	Y29	Z29	X30	Y30	Z30	X31	Y31	Z31	X32	Y32	Z32	X33	Y33	Z33	X34	Y34	Z34	X35	Y35	Z35	X36	Y36	Z36	X37	Y37	Z37	X38	Y38	Z38	X39	Y39	Z39	X40	Y40	Z40	X41	Y41	Z41	X42	Y42	Z42	X43	Y43	Z43	X44	Y44	Z44	X45	Y45	Z45	X46	Y46	Z46	X47	Y47	Z47	X48	Y48	Z48	X49	Y49	Z49	X50	Y50	Z50	X51	Y51	Z51	

78	0.77000000	-956.81712	711.60640	-426.42727	-937.89514	635.61541	-432.61944	-1182.55683	408.85065	-440.31902	-1246.42379	386.72972	-485.40080	-1091.46489	348.79652	-412.27851	-1046.90478	359.18670	-465.13109	-945.58704	703.84002	-723.37789	-945.99338	607.24250	-704.72085	-1185.67754	417.70661	-704.94644	-1254.28516	390.91423	-658.64981	-1102.68503	350.62005	-734.94842	-1050.17648	359.60027	-684.07685	-1014.41254	553.22182	-422.26873	-984.98205	687.31526	-398.39997	-1073.26457	607.85337	-395.25999	-994.42194	666.17802	-750.88484	-1076.00425	574.44275	-757.71559	-1032.20792	945.13716	-378.96785	-973.82142	848.75326	-393.37837	-1066.63076	791.22809	-421.49260	-1130.41167	887.51038	-395.98527	-1018.80869	796.45697	-395.73582	-1043.20121	962.77360	-765.35927	-970.15398	846.90043	-746.47754	-1141.43183	908.92144	-761.50455	-1069.17939	792.25752	-721.39799	-1029.17862	1077.23931	-464.37681	-1202.63564	1196.61332	-534.72529	-1032.61490	1077.30983	-678.15374	-1203.66066	1192.27109	-616.52793	-875.03473	1511.68549	-562.85617	-843.86278	1447.06524	-421.75531	-840.30135	1455.97481	-704.07232	-798.07806	1397.20920	-539.98851	-800.01486	1396.07832	-579.15029	-881.35420	1338.18172	-360.26812	-1065.59357	1205.57590	-342.08220	-1023.96583	1199.56323	-289.88590	-983.86649	1113.02470	-283.96202	-972.65710	969.34219	-296.13768	-1002.72932	967.37052	-271.96061	-877.65710	1368.01516	-782.84206	-1033.63436	1203.32702	-815.14440	-987.70415	1211.65489	-863.69390	-952.48530	1108.30021	-872.19424	-939.39712	982.63273	-861.68628	-972.28339	980.30157	-885.50291	-1141.30524	1035.80063	-466.02235	-1141.89649	1035.51494	-673.52808	-1122.24251	1055.12241	-490.97344	-1124.00850	1047.64232	-631.87415	
79	0.78000000	-950.13582	708.05325	-426.38731	-932.14703	632.01270	-433.34742	-1181.22776	410.10154	-440.78230	-1245.43793	388.75797	-485.86752	-1091.14334	348.89786	-412.36493	-1046.29784	358.71714	-465.31953	-939.92707	700.05850	-724.29042	-941.51130	603.44581	-704.89947	-1184.56216	418.31525	-704.70246	-1253.44372	392.40038	-658.54684	-1102.45845	350.52776	-735.02942	-1049.81606	359.18401	-684.32948	-1010.03566	550.99049	-422.81029	-978.57643	684.32617	-399.30694	-1068.14057	606.87224	-395.49504	-989.06548	663.15050	-751.06936	-1072.09233	572.77814	-757.89848	-1028.64176	940.35046	-379.51704	-968.91886	845.02178	-394.05596	-1061.15441	785.97089	-421.97807	-1126.15043	880.99100	-396.75425	-1013.45794	792.14187	-395.84488	-1041.49776	957.35616	-766.48698	-966.23846	842.46841	-746.82322	-1138.84064	902.08606	-759.83582	-1064.40840	787.32193	-723.71036	-1027.48319	1070.87696	-465.02261	-1201.02082	1190.00550	-534.71455	-1031.18740	1071.10148	-678.82905	-1202.40442	1185.65440	-616.66087	-872.64195	1504.36472	-563.31170	-841.08458	1439.18575	-422.76182	-837.97393	1448.05658	-704.30313	-795.30104	1389.60265	-540.34510	-797.37736	1388.43055	-579.16839	-874.22622	1329.12754	-361.98915	-1051.86998	1187.82607	-341.53483	-1008.67401	1183.70036	-290.12753	-964.38141	1098.86569	-286.48906	-946.73120	956.11703	-300.46739	-976.17986	952.41531	-275.61990	-871.28405	1358.34130	-782.08025	-1018.22435	1185.38261	-814.40756	-971.99687	1195.49388	-862.36851	-931.13446	1093.89079	-868.12995	-911.73292	969.45359	-855.73226	-943.86029	964.70587	-879.57996	-1139.40424	1029.19968	-466.43402	-1140.45722	1029.13051	-673.93885	-1120.31176	1048.78912	-491.22363	-1122.69005	1041.30654	-632.13872	
80	0.79000000	-943.86864	704.41002	-426.35094	-926.61401	628.52587	-433.87363	-1179.91783	411.21605	-441.27015	-1244.42901	390.69038	-486.22587	-1090.81518	348.94722	-412.47766	-1045.66239	358.35120	-465.53808	-934.44295	696.37436	-725.22872	-937.16566	599.87359	-705.26046	-1183.36478	419.13857	-705.02522	-1252.39893	393.62105	-658.94112	-1102.22737	350.44626	-735.12379	-1049.41235	358.76800	-684.54541	-1005.84587	548.62827	-423.19863	-972.61627	681.26993	-400.21877	-1063.09668	605.22758	-395.85157	-983.93621	660.13508	-751.12449	-1068.31933	570.92072	-757.72708	-1026.00905	935.02250	-379.34451	-964.51544	841.04193	-394.66842	-1055.91506	781.06225	-422.42645	-1121.99176	874.67620	-397.54426	-1008.08276	787.21254	-396.41445	-1039.38727	952.03934	-767.48430	-962.81113	837.99691	-747.74397	-1136.25198	895.07987	-757.22069	-1059.81254	782.27621	-725.34377	-1025.67685	1064.91571	-465.60507	-1199.33853	1183.56690	-534.78787	-1029.59417	1064.88382	-679.48297	-1200.82794	1179.23761	-617.06782	-870.41800	1497.52956	-563.91988	-838.18574	1431.95713	-423.60282	-835.68790	1440.71621	-704.51585	-792.26206	1382.58659	-540.71858	-794.43422	1381.59077	-579.01597	-867.21635	1321.16352	-363.59873	-1037.04409	1171.00538	-341.16859	-992.66350	1168.95643	-290.47044	-943.81901	1086.42657	-288.85955	-918.94206	945.08664	-304.54467	-947.65105	939.44146	-279.24758	-864.78159	1349.51651	-781.27854	-1001.69854	1168.25007	-813.26105	-955.44627	1180.61732	-861.03737	-908.60682	1081.22226	-863.95206	-882.30575	958.38205	-849.12773	-913.54335	951.24833	-873.26000	-1137.39301	1022.95584	-466.77303	-1138.82083	1022.78681	-674.27567	-1118.44228	1042.42750	-491.70581	-1120.99358	1035.01076	-632.67118	
81	0.80000000	-937.96276	700.81405	-426.45888	-921.39657	625.01228	-434.39302	-1178.62464	412.36303	-441.51248	-1243.42672	392.50850	-486.43508	-1090.47615	348.90863	-412.57626	-1045.05148	357.96059	-465.56144	-929.21184	692.63560	-725.86275	-932.94075	596.46294	-705.67126	-1182.16000	420.09481	-705.34211	-1251.50766	394.91574	-659.02857	-1101.99425	350.47047	-735.26809	-1048.95166	358.23401	-684.62893	-1001.88083	546.17455	-423.66853	-966.91187	678.27803	-401.06568	-1058.32033	603.40479	-396.28965	-978.93527	657.19940	-751.23853	-1064.56469	569.13591	-757.81040	-1023.89668	929.41680	-378.82523	-960.10086	837.09049	-395.01200	-1050.83575	776.21636	-422.80924	-1117.93619	868.90156	-397.78878	-1002.74931	782.02490	-397.30175	-1036.79928	946.92408	-768.04269	-959.51550	833.69517	-748.88836	-1133.33077	888.69418	-755.94848	-1055.49548	776.98062	-725.49851	-1023.57569	1059.25955	-466.09260	-1197.54257	1177.42394	-535.00043	-1027.95735	1058.76996	-680.18331	-1199.12015	1173.02966	-617.47311	-868.38322	1491.09426	-564.55773	-835.27002	1425.34100	-424.57457	-833.43166	1433.97689	-704.85253	-789.43092	1376.09080	-541.32957	-792.15876	1375.55591	-579.35805	-860.18823	1314.58226	-364.70469	-1021.13260	1155.14209	-340.88260	-975.91145	1155.55708	-290.79953	-922.25489	1075.84738	-291.02955	-889.59449	936.36731	-308.48554	-917.34785	928.87644	-282.69251	-858.11128	1341.64431	-780.65265	-984.33671	1152.23198	-812.54058	-938.12807	1167.09097	-859.53754	-884.91588	1070.54890	-859.78732	-851.15595	949.78166	-842.01804	-881.44583	940.19521	-866.47650	-1135.17770	1017.07203	-467.00095	-1137.10781	1016.55340	-674.49817	-1116.44979	1036.31635	-492.10414	-1119.14889	1028.79832	-633.20814	
